#!OML:ASF F:\VICON\USERDATA\INSTALL\rory3\rory3.ASF
:FULLY-SPECIFIED
:DEGREES
1771
root -8.81077 17.8592 -6.10115 -332.141 101.689 -338.554
lowerback 1.60541 1.13705 -6.65654
upperback 1.45752 1.54912 -3.05682
thorax 0.516545 0.774348 0.562427
lowerneck -9.53217 -14.0768 -15.6825
upperneck 25.5072 -16.772 2.12427
head 11.4618 -8.79335 0.946758
rclavicle 3.97569e-015 1.27222e-014
rhumerus 10.4538 -25.5867 -20.9895
rradius 27.5554
rwrist 20.9822
rhand -23.5195 -16.9129
rfingers 7.12502
rthumb 2.94141 -46.8723
lclavicle 3.97569e-015 1.27222e-014
lhumerus -39.3715 16.576 61.9834
lradius 26.0068
lwrist -6.53174
lhand -10.8504 29.6216
lfingers 7.12502
lthumb 15.1646 1139.05
rfemur -22.8 -9.19865 17.505
rtibia 24.0295
rfoot -19.912 -20.7395
rtoes 15.357
lfemur -10.9716 -0.994496 -17.1177
ltibia 26.9524
lfoot -17.9824 2.51478
ltoes -15.3432
1772
root -8.79373 17.858 -6.09491 -331.854 101.629 -338.264
lowerback 1.63624 1.09626 -6.51494
upperback 1.41965 1.49064 -3.08655
thorax 0.467378 0.748119 0.453266
lowerneck -9.1071 -14.476 -15.5668
upperneck 24.9209 -17.4112 2.01472
head 11.1935 -9.09799 0.831819
rclavicle -9.14409e-015 -3.18055e-014
rhumerus 10.734 -25.8706 -21.1199
rradius 27.4829
rwrist 21.3351
rhand -23.6563 -16.6848
rfingers 7.12502
rthumb 2.80932 -46.646
lclavicle -9.14409e-015 -3.18055e-014
lhumerus -39.754 16.4194 61.9617
lradius 26.1574
lwrist -6.25722
lhand -10.8405 29.5617
lfingers 7.12502
lthumb 15.1741 1138.99
rfemur -22.8432 -9.63447 17.6672
rtibia 24.1238
rfoot -19.5528 -20.5185
rtoes 15.2105
lfemur -10.8706 -0.921563 -17.0691
ltibia 26.8886
lfoot -18.0107 2.57949
ltoes -15.7339
1773
root -8.77812 17.8582 -6.08398 -332.194 101.428 -338.564
lowerback 1.72572 1.01438 -6.58958
upperback 1.4076 1.37573 -3.17533
thorax 0.412028 0.693862 0.403127
lowerneck -8.81562 -14.7927 -15.2423
upperneck 24.2759 -17.9218 1.79969
head 10.8832 -9.33771 0.675548
rclavicle -1.51076e-014 -7.95139e-015
rhumerus 11.1391 -26.0143 -21.3764
rradius 27.4524
rwrist 21.4902
rhand -23.6993 -16.621
rfingers 7.12502
rthumb 2.76775 -46.5828
lclavicle -1.51076e-014 -7.95139e-015
lhumerus -40.1154 16.2402 61.9085
lradius 26.3078
lwrist -5.58844
lhand -10.8839 29.5634
lfingers 7.12502
lthumb 15.1323 1138.99
rfemur -22.8444 -9.73464 17.6024
rtibia 24.2479
rfoot -19.3175 -20.5936
rtoes 14.8034
lfemur -10.6919 -0.89015 -17.1765
ltibia 26.8072
lfoot -18.0711 2.69498
ltoes -15.6026
1774
root -8.76315 17.8589 -6.06939 -332.584 101.23 -338.861
lowerback 1.83048 0.946063 -6.7386
upperback 1.44165 1.27925 -3.22995
thorax 0.39253 0.6465 0.429395
lowerneck -8.48115 -15.0778 -15.1873
upperneck 23.6173 -18.4395 1.95652
head 10.6302 -9.56595 0.684187
rclavicle 1.03368e-014 7.31528e-014
rhumerus 11.3835 -25.9152 -21.3589
rradius 27.5305
rwrist 21.3021
rhand -23.8794 -16.6892
rfingers 7.12502
rthumb 2.59386 -46.6532
lclavicle 1.03368e-014 7.31528e-014
lhumerus -40.3809 16.2242 61.8457
lradius 26.3618
lwrist -5.08896
lhand -10.9423 29.4929
lfingers 7.12502
lthumb 15.0761 1138.92
rfemur -22.7854 -9.54774 17.4899
rtibia 24.403
rfoot -19.3809 -20.8027
rtoes 14.8203
lfemur -10.4447 -1.11919 -17.2706
ltibia 26.69
lfoot -18.0451 2.98696
ltoes -15.4686
1775
root -8.74741 17.8594 -6.0589 -332.664 101.088 -338.958
lowerback 1.79832 0.870033 -6.82437
upperback 1.45722 1.18062 -3.19814
thorax 0.430172 0.595104 0.512089
lowerneck -8.08466 -15.3322 -15.3204
upperneck 22.8573 -18.9142 2.24274
head 10.3639 -9.77803 0.775344
rclavicle 6.36111e-015 -2.38542e-014
rhumerus 11.6669 -25.7807 -21.1551
rradius 27.6072
rwrist 21.1013
rhand -24.0657 -16.6491
rfingers 7.12502
rthumb 2.41391 -46.6152
lclavicle 6.36111e-015 -2.38542e-014
lhumerus -40.7428 16.8466 61.6564
lradius 26.4551
lwrist -5.3158
lhand -10.7999 29.4528
lfingers 7.12502
lthumb 15.2132 1138.87
rfemur -22.8598 -9.54811 17.4591
rtibia 24.555
rfoot -19.3322 -20.7837
rtoes 14.7614
lfemur -10.3309 -1.07185 -17.3049
ltibia 26.5541
lfoot -17.954 2.99485
ltoes -15.3481
1776
root -8.72922 17.86 -6.04738 -332.711 100.931 -339.036
lowerback 1.77041 0.842259 -6.84022
upperback 1.45944 1.14716 -3.21971
thorax 0.45035 0.578154 0.499735
lowerneck -7.78743 -15.6327 -15.4945
upperneck 22.2608 -19.451 2.60729
head 10.1991 -10.0129 0.871353
rclavicle 6.36111e-015 -5.40694e-014
rhumerus 11.9282 -25.9185 -21.0216
rradius 27.5568
rwrist 21.1565
rhand -24.0832 -16.5614
rfingers 7.12502
rthumb 2.397 -46.5277
lclavicle 6.36111e-015 -5.40694e-014
lhumerus -40.9754 16.9752 61.6232
lradius 26.556
lwrist -5.35657
lhand -10.3306 29.3291
lfingers 7.12502
lthumb 15.6653 1138.71
rfemur -22.9294 -9.5815 17.4084
rtibia 24.6646
rfoot -19.2331 -20.6997
rtoes 15.089
lfemur -10.2257 -0.895559 -17.347
ltibia 26.4383
lfoot -17.9064 2.9561
ltoes -15.3317
1777
root -8.71008 17.8606 -6.03379 -332.233 100.816 -338.559
lowerback 1.78995 0.823272 -6.70605
upperback 1.43216 1.11961 -3.25227
thorax 0.415481 0.566808 0.391867
lowerneck -7.49744 -15.9327 -15.6447
upperneck 21.7275 -19.9945 2.99674
head 10.0635 -10.2479 0.967459
rclavicle 3.57812e-015 -3.97569e-014
rhumerus 12.1356 -26.1207 -20.9767
rradius 27.5279
rwrist 21.329
rhand -24.0333 -16.6758
rfingers 7.12502
rthumb 2.44519 -46.6415
lclavicle 3.57812e-015 -3.97569e-014
lhumerus -41.1122 16.6607 61.6996
lradius 26.5643
lwrist -5.14412
lhand -10.0728 29.2809
lfingers 7.12502
lthumb 15.9136 1138.65
rfemur -22.9641 -9.6826 17.5083
rtibia 24.748
rfoot -18.9123 -20.6496
rtoes 15.6515
lfemur -10.0911 -0.921345 -17.2658
ltibia 26.3401
lfoot -17.9023 3.16255
ltoes -15.5559
1778
root -8.68972 17.8633 -6.01864 -331.428 100.76 -337.767
lowerback 1.76611 0.728441 -6.60709
upperback 1.39762 0.989966 -3.16888
thorax 0.399996 0.501569 0.425168
lowerneck -7.12687 -16.1003 -15.7442
upperneck 20.9751 -20.3695 3.41863
head 9.8199 -10.4024 1.11204
rclavicle 1.19271e-014 2.22639e-014
rhumerus 12.5392 -26.1128 -20.9555
rradius 27.5699
rwrist 21.2886
rhand -24.1957 -16.8057
rfingers 7.12502
rthumb 2.28833 -46.7732
lclavicle 1.19271e-014 2.22639e-014
lhumerus -41.4446 16.9701 61.5635
lradius 26.5891
lwrist -5.4051
lhand -9.97657 29.2027
lfingers 7.12502
lthumb 16.0062 1138.56
rfemur -22.9981 -9.74687 17.7103
rtibia 24.8057
rfoot -18.4961 -20.747
rtoes 15.8326
lfemur -9.97557 -1.0061 -17.0933
ltibia 26.2452
lfoot -17.8479 3.41732
ltoes -15.9758
1779
root -8.67043 17.8656 -6.00327 -330.868 100.604 -337.252
lowerback 1.71212 0.657424 -6.64048
upperback 1.36539 0.894118 -3.08032
thorax 0.400338 0.452085 0.53685
lowerneck -6.79923 -16.2423 -15.7601
upperneck 20.1667 -20.7062 3.83606
head 9.55439 -10.5349 1.2501
rclavicle 1.98785e-014 2.8625e-014
rhumerus 12.9306 -26.0791 -20.8755
rradius 27.6318
rwrist 21.2997
rhand -24.2096 -16.7401
rfingers 7.12502
rthumb 2.2749 -46.7077
lclavicle 1.98785e-014 2.8625e-014
lhumerus -41.6956 17.1241 61.6071
lradius 26.6152
lwrist -5.46124
lhand -10.1088 29.2446
lfingers 7.12502
lthumb 15.8789 1138.61
rfemur -23.0488 -9.66215 17.7943
rtibia 24.8023
rfoot -17.9846 -21.0576
rtoes 16.1051
lfemur -9.90924 -0.976769 -17.0141
ltibia 26.1881
lfoot -17.8516 3.5897
ltoes -16.0699
1780
root -8.65282 17.8647 -5.98862 -331.136 100.383 -337.508
lowerback 1.73156 0.619488 -6.71921
upperback 1.3783 0.843317 -3.1051
thorax 0.405322 0.426631 0.555591
lowerneck -6.60319 -16.4082 -15.7697
upperneck 19.4884 -21.0598 4.27277
head 9.36553 -10.6714 1.37304
rclavicle -2.78299e-015 -1.59028e-014
rhumerus 13.2029 -26.1663 -20.7942
rradius 27.6932
rwrist 21.3175
rhand -23.8717 -16.4839
rfingers 7.12502
rthumb 2.60128 -46.4478
lclavicle -2.78299e-015 -1.59028e-014
lhumerus -41.7858 16.8383 61.8213
lradius 26.7061
lwrist -5.15874
lhand -9.96812 29.3132
lfingers 7.12502
lthumb 16.0143 1138.67
rfemur -22.9833 -9.35342 17.6261
rtibia 24.7397
rfoot -17.7233 -21.3814
rtoes 17.634
lfemur -9.79889 -0.819482 -17.1042
ltibia 26.1583
lfoot -17.9148 3.60513
ltoes -15.8726
